<?xml version="1.0" encoding="utf-8"?>
<!-- Generator: Adobe Illustrator 19.1.0, SVG Export Plug-In . SVG Version: 6.00 Build 0)  -->
<svg version="1.1" xmlns="http://www.w3.org/2000/svg" xmlns:xlink="http://www.w3.org/1999/xlink" x="0px" y="0px"
	 viewBox="0 0 1492 580" style="enable-background:new 0 0 1492 580;" xml:space="preserve">
<style type="text/css">
	.Graphic_x0020_Style_x0020_2{fill:#0088CC;}
	.Graphic_x0020_Style_x0020_3{fill:#F4BA00;}
	.Graphic_x0020_Style_x0020_4{fill:#A1DD0E;}
	.st0{fill:#FFFFFF;}
	.st1{fill:#DD210E;}
	.st2{fill:#FFFFFF;stroke:#8DACB7;stroke-width:12;stroke-miterlimit:10;}
	.st3{fill:#0887C9;}
</style>
<g id="Layer_1">
	<path class="Graphic_x0020_Style_x0020_4" d="M1112.9,242.6c-9.3-0.7-99.3-29-99.3-37.7l0.6-145.9c0-9.6,10.5-15.6,18.8-10.7
		l125.7,73.3c7.6,4.4-13.8,96.1-17.7,104.7"/>
	<g>
		<path class="st0" d="M1119,140.7l-57.7-33.7c-4.6-2.7-10.4,0.6-10.4,5.9l-0.3,66.9c0,6.1,6.5,9.9,11.8,6.9l56.5-32.4
			C1124.2,151.3,1124.3,143.7,1119,140.7z"/>
		
			<rect x="1082.5" y="148.7" transform="matrix(0.8682 -0.4961 0.4961 0.8682 54.1639 568.4792)" class="st0" width="29.9" height="67"/>
	</g>
	<path class="st1" d="M1140.4,364.6c4.1,8.4,24.6,100.5,16.9,104.8l-126.7,72.4c-8.3,4.8-18.7-1.3-18.7-10.9l0.6-145.5
		c0-8.8,90.1-36.1,99.5-37"/>
	<g>
		<path class="st0" d="M1049.6,410.5l-0.3,66.8c0,5.3,5.7,8.7,10.3,6l58.1-33.2c5.3-3,5.3-10.6,0-13.6l-56.4-32.7
			C1056.2,400.7,1049.6,404.4,1049.6,410.5z"/>
		
			<rect x="1081.5" y="374.9" transform="matrix(-0.8638 -0.5039 0.5039 -0.8638 1837.6824 1313.6628)" class="st0" width="29.9" height="67"/>
	</g>
	<path class="Graphic_x0020_Style_x0020_3" d="M1232.4,279.7c5.2-7.7,74.7-71.5,82.3-67.1l126,73.5c8.3,4.8,8.3,16.9-0.1,21.6
		L1314.2,380c-7.6,4.4-76.3-60-81.8-67.6"/>
	<g>
		<path class="st0" d="M1318.1,335.7l58-33.1c4.6-2.6,4.6-9.3,0.1-12l-57.8-33.7c-5.2-3.1-11.8,0.7-11.8,6.8l-0.2,65.2
			C1306.3,334.9,1312.8,338.8,1318.1,335.7z"/>
		
			<rect x="1277.9" y="262.7" transform="matrix(-4.453020e-03 1 -1 -4.453020e-03 1594.8632 -995.3288)" class="st0" width="29.9" height="67"/>
	</g>
	<circle class="st2" cx="1161.9" cy="295.6" r="122.5"/>
	<circle class="st2" cx="1161.9" cy="295.6" r="122.5"/>
	<g>
		<path class="Graphic_x0020_Style_x0020_2" d="M58.4,354.7c-5.8,0-10.6-4.8-10.6-10.8V204.2c0-6,4.8-10.8,10.6-10.8h21.2
			c5.8,0,10.6,4.8,10.6,10.8V258h24.2c13.1,0,22.6-6.7,31.5-22.8l17.5-31.1c4.1-7.4,10.4-10.8,16.1-10.8h26c5.8,0,6.9,4.6,3.5,10.8
			l-24.4,44.2c-5.8,10.4-13.4,21.2-29,24.9c11.1,2.3,22.6,16.3,29,26.2l28.1,44.7c3.7,6,2.1,10.6-3.9,10.6h-25.8
			c-5.8,0-13.6-4.6-17.3-10.6l-19.8-31.3c-8.5-13.6-17-23-31.5-23H90.1v54.6c0,5.8-4.8,10.4-10.6,10.4H58.4z"/>
		<path class="Graphic_x0020_Style_x0020_2" d="M280.1,345.1c-23.7,0-41-11.1-53.9-52.5l-16.8-54.3c-1.2-3.5,1.6-6.7,5.3-6.7h23.5
			c4.1,0,8.7,3.2,10.1,7.6l14.7,47.7c7.6,24.2,14.7,31.1,24.6,31.1l22.3-78.7c1.2-4.4,5.3-7.6,9.4-7.6h23.7c3.7,0,6.2,3.2,5.3,6.7
			l-29.5,105c-10.4,36.6-24.2,51.8-50.7,51.8c-9.2,0-21.9-0.9-29.2-2.3c-3.9-0.7-6.9-3.5-6.9-6.9v-12.4c0-3.9,3-6.9,6.9-6.9h4.1
			c5.1,0,9.4,1.8,14.7,1.8C268.8,368.3,275.9,360.5,280.1,345.1z"/>
		<path class="Graphic_x0020_Style_x0020_3" d="M346.4,354.7c-3.9,0-6.9-3-6.9-6.9v-13.4c0-3.9,3-6.9,6.9-6.9h8.7l15.4-61.9
			c6.9-27.6,31.1-34.1,56.4-34.1h51.1c3.9,0,6.9,3,6.9,6.9v109.4c0,3.9-3,6.9-6.9,6.9H346.4z M446.1,327.6v-68.8h-20.3
			c-10.1,0-17.5,4.4-20.7,16.6L392,327.6H446.1z"/>
		<path class="Graphic_x0020_Style_x0020_3" d="M551.3,262.4c-3,3.7-7.1,6-12.9,6h-16.8c-3.9,0-6.9-3-6.9-6.9
			c0-23.9,23.9-32.2,61.2-32.2c33.2,0,59.2,13.8,59.2,49v69.5c0,3.9-3,6.9-6.9,6.9h-21.6c-3.9,0-6.9-3-6.9-6.9v-3.5
			c-10.4,7.4-23,12.7-40.8,12.7c-30.2,0-53.2-13.6-53.2-39.6c0-26,23-39.1,53.2-39.1h37.3c0-18-7.6-23.5-23-23.5
			C563.7,254.8,555.2,257.6,551.3,262.4z M596.2,321.4v-17.5h-34.5c-10.8,0-17,6-17,13.6c0,8.1,6.2,14,18.2,14
			C576.6,331.5,588.1,326.4,596.2,321.4z"/>
		<path class="Graphic_x0020_Style_x0020_4" d="M762.9,252.5c34.5,0,61.2,15.7,61.2,51.1c0,35.5-26.7,51.1-61.2,51.1h-87.7
			c-5.8,0-10.1-4.6-10.1-10.4V204.2c0-6,4.6-10.6,10.6-10.6h126.6c5.8,0,10.6,4.6,10.6,10.6v10.6c0,5.8-4.6,10.6-10.4,10.6h-95.1
			v27.2H762.9z M707.4,284.3V323h55.5c12.2,0,18.9-6.4,18.9-19.3s-6.7-19.3-18.9-19.3H707.4z"/>
		<path class="Graphic_x0020_Style_x0020_4" d="M910.5,272.3c29.7,0,50.2,9.9,50.2,41.2s-20.5,41.2-50.2,41.2h-58.7
			c-3.9,0-6.9-3-6.9-6.9V238.5c0-3.9,3-6.9,6.9-6.9h25.1c3.9,0,6.9,3,6.9,6.9v33.8H910.5z M883.1,297.4v32.2H907
			c9.2,0,14.7-5.5,14.7-16.1c0-10.6-5.5-16.1-14.7-16.1H883.1z M983.4,354.7c-3.9,0-6.9-3-6.9-6.9V238.5c0-3.9,3-6.9,6.9-6.9h25.1
			c3.9,0,6.9,3,6.9,6.9v109.4c0,3.9-3,6.9-6.9,6.9H983.4z"/>
	</g>
</g>
<g id="Layer_2">
	<path id="path3315-4" class="st3" d="M1126,198.9c-0.5,0-1.1,0.2-1.7,0.6C1125.7,199,1126.3,198.9,1126,198.9 M1161,205.7l0.3-5.1
		l-5.4,0.3l0.7,4.8H1161 M1100,294.1c-1.1-1-0.4-5.5-0.4-5.5s-16.2-8.5-33.9-13.7c-2.2-0.6-1.1-5.1,1.1-6.8l-0.7-4.8
		c-0.4-2.4,3.6-14,7.6-15c4-1-0.4,6.8-0.4,6.8l-4,2.4c0,0,4.7,5.5,5.8,5.5c1.1,0,2.9-2.7,2.9-2.7l-5-3.4l4.7-2.1l0.3-1.8l0.8-0.3
		l7.8-11.8c5.4-2.2,12-4.9,12.8-5.3c1.4-0.7,11.5-6.5,13.3-7.8c1.8-1.4,5.8-1,7.2-1c1.4,0,3.6-0.7,4-4.4c0.4-3.8,1.8-4.4,2.9-3.4
		c1.1,1-1.1,2.7,1.4,3.4c2.5,0.7,4.7,2.4,6.5,0.7c1.3-1.2-0.4-2.7-1.6-3.7h20l2.2-6.2l-4.7-0.7l-17.3-1.7v-2.1l-1.4,0.2
		c1.9-10.3,13-8.6,4.6-14.6c-0.5-0.4-7.8,11.6-9.7,11.3c-3.4-0.4-7.7-0.5-8.7,0.6c-1.2,1.5,2.8-5,6.2-6.9
		c-4.1,1.2-11.5-2.5-24.7,6.8c-4.5,3.2-15.7,16-20.4,20.9c-19.6,23.1-21.1,42.9-21.1,43.7c0,1.7,4.1,2.7,4.5,4.7
		c0.4,2-6.8,8.9-6.8,12.3c0,1.6-3.6,18.6,4.3,39.9c7,20.2,20.6,38.1,22.4,39.2l5-2.7c0,0-8.3-14.7-8.7-16.1
		c-0.4-1.4,9.4-21.2,14.1-20.5c4.7,0.7,3.6,2,6.5,0.3c2.9-1.7,4.7-15.7,7.9-17.1c3.2-1.4,6.8-3.1,6.5-6.5
		C1113.4,301.3,1101.1,295.1,1100,294.1 M1178.3,193.7l-9.7-3.4l1.8,5.5L1178.3,193.7 M1141.9,206.4c1.1,0,22.7-14.3,20.6-14.7
		c-2.2-0.3-2.5,0-8.3-0.7c-5.8-0.7-11.9,8.2-13.3,9.6C1139.3,201.9,1139.8,206.4,1141.9,206.4 M1241.1,309.3l2.8-3.6l-2.8-1
		l-2.1,2.6l-2.4,3.6l2.1,1L1241.1,309.3 M1253.3,321.2l-0.7-5.3h-4.5l-0.4,3.9l-4.2-0.7l-1-4.3l-2.1-1.3l-2.4,3l-2.4-0.7l-0.7,2.3
		l2.8,0.7v21.4l9.9,2.4c-0.2,0.4-0.4,0.7-0.5,0.9c-0.7,2.3,2.8,3.3,5.2,2.3c0.9-0.4,6.6-2.6,8.4-6.8c2.5-6,4.1-14.6,4.6-17.4
		l-1.1-2.4l-7,2.6L1253.3,321.2L1253.3,321.2 M1249.8,233.6c-16-24.2-54.3-40-54.3-40l-9.9,5.2l-1.4-2.3l-3.5-1.3v3l3.1,2.6l-2.1,1
		l-8,0.7l-18.1,9.9l1.7,7.9l-2.1,0.7l-1,1.6l5.9,8.9l0.3,3l-4.9,1v5.9l-2.8,0.7l0.3,4.6l-23.7,16.5l0.7,9.2
		c1.7,2.3,15.4,16.1,15.4,16.1s15.7,0.7,19.2-1.3c3.5-2,1,2,2.1,3c1,1,1.4,7.9,2.4,8.6c1.1,0.7,0,4.6,1.4,5.9
		c1.4,1.3,1.4,17.1,1.4,17.1s8.4,14.1,8.4,17.8c0,3.6-0.4,3.3,6.3,3c6.6-0.3,8-3,9.4-3.9c1.4-1,1.4-3.3,2.8-5.3
		c1.4-2,3.8-9.5,7-12.2c3.1-2.6,11.5-4.6,12.2-9.2c0.7-4.6,3.8-8.2,3.8-8.2l15.1-16l-0.4,2.1l-0.3,8.2l4.5-1.6l-0.3-8.9l-1.6-1.7
		l0.2-0.3c0,0-1-2-2.4-2c-1.4,0-9.8,2-11.2,1.6c-1.4-0.3-7.3-16.1-8.4-16.8c-1.1-0.7-7.7-11.5-7.7-11.5s15.3,18.4,17.8,25.7
		c1.4,4.2,6.7,0.3,11.1-4.1l1.1,2.8l2.8-0.7l-0.3-3.3h3.1v4.9l-1,2.6l-0.4,4.3l2.8,2.6l1.4-2.3l4.5-4.3l5.2-2.6l1.4,2.6l0.7,3.6
		l-1.4,3.9l-2.8,2.3l-1.4,5.9v3l-3.1-2l-0.3-6.2l-4.5,0.3l-2.1,5.6l3.1,4.6l7.3,1l5.9-5.6l0.7-10.8l2.6-3.5c1.7,4.4,2.9,9,2.9,13.4
		c0,4.7,3.7-2.4,1.9-16.8C1268.5,283.6,1265.7,249.4,1249.8,233.6L1249.8,233.6z M1180.1,247.8l-18.8-0.7l8-6.6h4.2l6.6,4.6V247.8
		 M1203.1,245.5v3h-8l0.7,2l-4.9,0.7l-0.3,1.6l-3.5-0.6l-6.3-1.3l1.1-1.6l1-2l3.5-3.6l1.4,2.6l5.2-0.3l2.8-3l10.8,2L1203.1,245.5
		 M1203.8,241.2l-4.2,0.7l-0.7-3l5.2-0.7l0.7-3l3.8,4L1203.8,241.2L1203.8,241.2 M1224,343.5l-2.4,2l0.3,4.9h3.1v-4.3l2.8-3.6V335
		l-1.8-0.3L1224,343.5L1224,343.5 M1200.7,333.7c0,0-2.4,0.6,0.3,1.6c2.8,1,14-16.1,14-16.1l-9.4,5.9L1200.7,333.7L1200.7,333.7
		 M1181.7,396.7l-2.1-2l-4.2-0.7l-0.7,2l-5.6-0.7l-0.4-2.6h-4.2l-4.5,2.6h-8l-0.7-2l-12.9-1.3l-2.1,2l-5.2-1.3l-0.7-4.6l-2.4-0.3
		l-2.8,5l-9.4-0.3c1.7,0.8,15.7,9.2,37.3,10.9c28.6,2.3,42.2-4.6,42.2-4.6l-1-1L1181.7,396.7L1181.7,396.7L1181.7,396.7
		L1181.7,396.7z"/>
</g>
</svg>
